<svg xmlns="http://www.w3.org/2000/svg" xmlns:xlink="http://www.w3.org/1999/xlink" version="1.1" x="0px" y="0px" width="331.476px" height="232.877px" viewBox="0 0 331.476 232.877" enable-background="new 0 0 331.476 232.877" xml:space="preserve">
  <g id="Background"/>
  <g id="Guides"/>
  <g id="Foreground">
    <path fill-rule="evenodd" clip-rule="evenodd" d="M191.167 115.715h35.176l4.248-49.298c0.397-4.593 0.663-9.339 0.928-13.932h1.195c0.266 4.899 1.195 9.492 2.256 14.391l13.01 48.839h21.237l14.469-51.748c1.062-3.674 1.726-7.655 2.39-11.482h0.663l4.911 63.23h35.176L310.367 0.278h-37.034l-11.283 45.317c-1.194 4.899-1.858 10.258-2.522 15.31h-0.929L244.793 0.278h-37.433L191.167 115.715z"/>
    <g>
      <path fill-rule="evenodd" clip-rule="evenodd" d="M182.673 175.458c0-0.085 0.013-0.167 0.017-0.25l-1.643 11.344c-0.124 0.461-0.19 0.945-0.19 1.444 0 2.777 2.057 5.07 4.72 5.483 -0.041-0.272-0.069-0.549-0.069-0.833 0-0.5 0.065-0.983 0.19-1.445l1.49-10.29C184.625 180.414 182.673 178.162 182.673 175.458z"/>
      <polygon fill-rule="evenodd" clip-rule="evenodd" points="185.445,158.738 11.237,165.493 11.237,170.324 184.733,163.596   "/>
      <path fill-rule="evenodd" clip-rule="evenodd" d="M187.849 138.436l-0.144 1.335c-0.124 0.46-0.19 0.945-0.19 1.445 0 2.776 2.057 5.07 4.72 5.483 -0.041-0.272-0.069-0.549-0.069-0.833 0-0.5 0.065-0.984 0.189-1.445l0.145-1.335c0-3.419-2.14-6.325-5.16-7.442C187.664 136.513 187.849 137.451 187.849 138.436z"/>
      <polygon fill-rule="evenodd" clip-rule="evenodd" points="180.064,196.825 11.237,215.671 11.237,220.84 179.306,202.078   "/>
      <path fill-rule="evenodd" clip-rule="evenodd" d="M326.826 132.653v30.673c-8.258-2.857-18.305-4.533-29.143-4.533 -38.897 0-61.952 25.72-109.432 22.222 -0.293 0-0.578-0.029-0.858-0.073 0.406 2.673 2.724 4.723 5.509 4.723 47.479 3.498 70.533-22.221 109.432-22.221 10.838 0 20.885 1.676 29.143 4.533v-33.911C329.988 133.55 328.423 133.088 326.826 132.653z"/>
      <path fill-rule="evenodd" clip-rule="evenodd" d="M326.826 210.538c-8.258-2.856-18.305-4.532-29.143-4.532 -38.897 0-65.449 25.388-112.93 21.89 -0.982 0-1.919-0.187-2.788-0.513 1.129 3.013 4.031 5.163 7.438 5.163 47.479 3.499 74.031-21.891 112.93-21.891 10.838 0 20.885 1.676 29.143 4.533v-34.674c-1.488-0.515-3.053-0.977-4.65-1.412V210.538z"/>
    </g>
    <path fill-rule="evenodd" clip-rule="evenodd" fill="#FFC047" stroke="#FFC047" stroke-width="0.1" d="M326.826 163.326c-8.258-2.857-18.305-4.533-29.143-4.533 -38.897 0-61.952 25.72-109.432 22.222 -3.068 0-5.578-2.488-5.578-5.557 0-0.5 0.066-0.984 0.189-1.445l-1.815 12.538c-0.124 0.461-0.19 0.945-0.19 1.444 0 3.069 2.51 5.557 5.578 5.557 47.479 3.499 72.351-22.221 111.248-22.221 10.838 0 20.885 1.676 29.143 4.533v34.674c-8.258-2.856-18.305-4.532-29.143-4.532 -38.897 0-65.449 25.388-112.93 21.89 -4.384 0-7.948-3.554-7.948-7.938 0-0.471 0.04-0.931 0.119-1.378l3.14-21.755L6.587 216.19v-35.176l177.475-12.838 1.383-9.438L6.587 165.673v-35.176h173.368c4.384 0 7.895 3.554 7.895 7.938l-0.144 1.335c-0.124 0.46-0.19 0.945-0.19 1.445 0 3.069 2.51 5.556 5.578 5.556 47.479 3.499 65.692-21.89 104.59-21.89 10.838 0 20.885 1.676 29.143 4.533V163.326z"/>
    <path d="M128.665 0.305c1.077 0 1.197 0.49 1.197 1.469v5.552c0 0.49-0.12 0.979-0.24 1.143 -0.239 0.163-3.711 0.327-3.95 0.327 -3.232 0.163-6.704 1.306-6.704 6.203 0 2.612 0.479 4.734 2.634 13.385l13.887 57.948c8.26-31.667 18.121-73.312 21.592-85.555 0.479-0.49 0.599-0.49 1.197-0.49 3.113 0 4.505-0.304 4.864 0.675l24.995 91.375c0 0-2.34 16.279-3.164 22.071 -0.239 1.306-0.599 1.306-1.676 1.306h-7.302c-0.958 0-1.077-0.327-1.557-1.469 -2.634-12.896-3.711-17.303-7.781-32.32 -4.31-15.834-8.295-34.116-11.408-47.991 -3.951 17.139-4.908 21.057-13.767 55.826 -3.112 11.916-4.07 15.833-6.225 24.812 -0.359 0.979-0.479 1.143-1.437 1.143h-8.823c-0.838 0-0.958-0.49-1.197-1.632 -2.514-10.121-20.949-82.107-21.428-84.392 -2.676-9.816-4.052-19.461-9.706-19.461 -3.315 0-4.022 4.496-4.022 10.646v46.848c-0.128 10.774-0.128 26.771-10.495 39.177 -2.816 3.428-11.775 12.895-30.078 12.895 -8.191 0-18.559-2.285-26.494-10.447C11.722 99.064 11.21 86.168 11.083 74.579V23.505c0-11.753-1.108-15.018-10.314-15.018 -0.64 0-0.64-0.163-0.768-1.143v-5.55C0 0.653 0 0 1.28 0c2.944 0 32.046 0.163 39.213 0 0.384 0 0.896 0.163 0.896 1.143v6.203c-0.128 1.143-0.384 1.143-1.792 1.143 -10.239 0-9.701 4.244-9.701 16.16V61.52l0.256 13.222c0.384 6.692 0.768 12.896 3.712 19.425 2.048 4.57 8.191 14.038 20.351 14.038 6.655 0 13.183-2.775 18.046-8.488 7.167-8.488 8.191-19.915 8.319-32.483V22.997c0-11.426-1.024-14.308-12.415-14.96 -0.896 0-1.024-0.163-1.024-0.979v-5.6c0-0.979 0-1.143 0.768-1.143C67.91 0.314 127 0.305 128.665 0.305z"/>
  </g>
</svg>
