<svg xmlns="http://www.w3.org/2000/svg" xmlns:xlink="http://www.w3.org/1999/xlink" version="1.1" x="0px" y="0px" width="447px" height="52px" viewBox="0 0 447 52" enable-background="new 0 0 447 52" xml:space="preserve"><g id="Layer_5"><path fill-rule="evenodd" clip-rule="evenodd" d="M306.74 31.395h5.642l0.681-7.905c0.064-0.737 0.106-1.498 0.148-2.235h0.192c0.042 0.787 0.191 1.522 0.361 2.308l2.087 7.832h3.406l2.318-8.298c0.172-0.589 0.277-1.228 0.385-1.842h0.105l0.788 10.14h5.641l-2.64-18.511h-5.938l-1.81 7.267c-0.191 0.785-0.298 1.645-0.405 2.455h-0.148l-2.214-9.722h-6.002L306.74 31.395z"/><path fill-rule="evenodd" clip-rule="evenodd" d="M305.379 40.976c0-0.016 0.002-0.027 0.002-0.041l-0.263 1.819c-0.02 0.073-0.03 0.15-0.03 0.23 0 0.453 0.342 0.822 0.779 0.879 -0.004-0.034-0.011-0.072-0.011-0.109 0-0.079 0.01-0.157 0.029-0.232l0.243-1.67C305.705 41.78 305.379 41.418 305.379 40.976z"/><path fill-rule="evenodd" clip-rule="evenodd" d="M306.209 35.039l-0.023 0.214c-0.02 0.073-0.031 0.15-0.031 0.23 0 0.453 0.343 0.822 0.781 0.88 -0.005-0.037-0.012-0.073-0.012-0.112 0-0.079 0.011-0.157 0.029-0.229l0.024-0.215c0-0.556-0.354-1.023-0.847-1.196C306.179 34.745 306.209 34.889 306.209 35.039z"/><polygon fill-rule="evenodd" clip-rule="evenodd" points="305.824,38.294 277.91,39.376 277.91,40.174 305.706,39.096   "/><polygon fill-rule="evenodd" clip-rule="evenodd" points="304.961,44.401 277.91,47.422 277.91,48.273 304.835,45.27   "/><path fill-rule="evenodd" clip-rule="evenodd" d="M328.495 34.127v4.902c-1.324-0.458-2.936-0.727-4.674-0.727 -6.237 0-9.935 4.123-17.548 3.564 -0.039 0-0.076-0.009-0.115-0.012 0.057 0.438 0.43 0.777 0.883 0.777 7.615 0.563 11.311-3.562 17.549-3.562 1.737 0 3.349 0.27 4.673 0.728v-5.438C329.017 34.275 328.76 34.198 328.495 34.127z"/><path fill-rule="evenodd" clip-rule="evenodd" d="M328.495 46.601c-1.324-0.46-2.936-0.727-4.674-0.727 -6.237 0-10.495 4.07-18.108 3.51 -0.15 0-0.293-0.032-0.429-0.08 0.177 0.492 0.644 0.849 1.196 0.849 7.613 0.561 11.871-3.511 18.109-3.511 1.737 0 3.349 0.27 4.673 0.728v-5.562c-0.246-0.084-0.503-0.161-0.768-0.232V46.601z"/><path fill-rule="evenodd" clip-rule="evenodd" fill="#FFC20E" d="M328.495 39.029c-1.324-0.458-2.936-0.727-4.674-0.727 -6.237 0-9.935 4.123-17.548 3.564 -0.492 0-0.895-0.401-0.895-0.892 0-0.082 0.012-0.159 0.03-0.232l-0.291 2.011c-0.02 0.073-0.03 0.15-0.03 0.23 0 0.494 0.402 0.891 0.895 0.891 7.614 0.563 11.602-3.562 17.839-3.562 1.738 0 3.35 0.27 4.674 0.728v5.561c-1.324-0.46-2.936-0.727-4.674-0.727 -6.237 0-10.495 4.07-18.108 3.51 -0.703 0-1.275-0.569-1.275-1.271 0-0.078 0.008-0.15 0.02-0.224l0.504-3.487 -27.818 3.104v-5.639l28.46-2.061 0.222-1.513 -28.682 1.111v-5.641h27.801c0.702 0 1.266 0.57 1.266 1.274l-0.023 0.214c-0.02 0.073-0.031 0.15-0.031 0.23 0 0.492 0.404 0.891 0.896 0.891 7.612 0.562 10.533-3.51 16.771-3.51 1.738 0 3.35 0.27 4.674 0.728V39.029z"/><path d="M296.718 12.888c0.174 0 0.192 0.079 0.192 0.235v0.891c0 0.079-0.019 0.156-0.038 0.184 -0.038 0.025-0.595 0.051-0.634 0.051 -0.519 0.027-1.074 0.209-1.074 0.995 0 0.419 0.076 0.759 0.422 2.147l2.226 9.292c1.326-5.078 2.906-11.755 3.464-13.719 0.077-0.079 0.097-0.079 0.191-0.079 0.499 0 0.723-0.049 0.78 0.108l4.008 14.652c0 0-0.375 2.611-0.507 3.539 -0.039 0.21-0.097 0.21-0.27 0.21h-1.17c-0.153 0-0.173-0.053-0.251-0.237 -0.421-2.067-0.594-2.772-1.246-5.181 -0.692-2.541-1.331-5.471-1.83-7.696 -0.634 2.749-0.787 3.376-2.208 8.953 -0.499 1.909-0.652 2.538-0.998 3.979 -0.057 0.157-0.076 0.183-0.23 0.183h-1.415c-0.133 0-0.152-0.08-0.191-0.262 -0.403-1.623-3.359-13.167-3.436-13.532 -0.43-1.575-0.649-3.122-1.557-3.122 -0.532 0-0.646 0.722-0.646 1.708V23.7c-0.021 1.727-0.021 4.292-1.683 6.282 -0.451 0.549-1.889 2.067-4.823 2.067 -1.313 0-2.977-0.367-4.249-1.676 -1.58-1.649-1.662-3.717-1.683-5.574v-8.191c0-1.885-0.178-2.408-1.653-2.408 -0.103 0-0.103-0.026-0.124-0.183v-0.89c0-0.183 0-0.288 0.205-0.288 0.473 0 5.14 0.026 6.288 0 0.062 0 0.145 0.026 0.145 0.182v0.996c-0.021 0.183-0.062 0.183-0.288 0.183 -1.641 0-1.556 0.681-1.556 2.591v5.912l0.041 2.121c0.062 1.073 0.123 2.068 0.597 3.115 0.328 0.733 1.312 2.252 3.262 2.252 1.068 0 2.114-0.444 2.895-1.361 1.149-1.362 1.314-3.194 1.335-5.209v-7.094c0-1.833-0.165-2.294-1.992-2.4 -0.144 0-0.164-0.025-0.164-0.156v-0.898c0-0.157 0-0.183 0.123-0.183C286.976 12.89 296.451 12.888 296.718 12.888z"/><path fill-rule="evenodd" clip-rule="evenodd" d="M309.382 2.579c0.01 0.055 0.01 0.064 0.049 0.064 0.701 0 0.774 0.182 0.774 0.84v2.83c0.008 0.648 0.041 1.371 0.668 1.945 0.505 0.457 1.165 0.584 1.687 0.584 1.164 0 1.735-0.53 1.914-0.721 0.66-0.694 0.66-1.589 0.668-2.191V3.309c0-0.547 0.146-0.648 0.766-0.675 0.065 0 0.074-0.01 0.082-0.083V2.223c-0.008-0.046-0.008-0.056-0.066-0.056 -0.373 0-0.756 0.019-1.131 0.019 -0.155 0-0.831-0.019-0.97-0.019 -0.05 0-0.05 0.01-0.05 0.065v0.329c0 0.045 0.009 0.055 0.066 0.055 0.725 0.037 0.79 0.174 0.79 0.812v2.475c-0.008 0.703-0.074 1.342-0.53 1.816 -0.309 0.32-0.725 0.475-1.148 0.475 -0.773 0-1.165-0.53-1.295-0.785 -0.188-0.366-0.212-0.712-0.236-1.087l-0.017-0.74V3.547c0-0.667 0.024-0.904 0.677-0.904 0.089 0 0.105 0 0.113-0.064V2.232c0-0.055-0.032-0.065-0.057-0.065 -0.456 0.01-0.904 0.028-1.352 0.028 -0.204 0-1.133-0.028-1.32-0.028 -0.082 0-0.082 0.037-0.082 0.101V2.579z"/><path fill-rule="evenodd" clip-rule="evenodd" d="M322.768 3.309c-0.016-0.576 0.171-0.666 0.692-0.675 0.081 0 0.089-0.01 0.099-0.101V2.259c0-0.063 0-0.1-0.074-0.1 -0.155 0.008-0.831 0.027-0.97 0.027 -0.122 0-0.644-0.019-0.961-0.027 -0.057 0-0.064 0.027-0.064 0.1v0.311c0.008 0.064 0.016 0.083 0.072 0.083 0.693 0 0.75 0.2 0.75 0.94l-0.008 2.877 -3.243-4.164c-0.081-0.092-0.13-0.146-0.301-0.146 -0.163 0-0.896 0.027-1.043 0.027 -0.188 0-0.375-0.009-0.562-0.009 -0.057 0.019-0.073 0.027-0.073 0.091v0.247c0 0.064 0.008 0.074 0.066 0.074 0.382 0.018 0.528 0.137 0.765 0.347l-0.099 4.191c-0.016 0.621-0.097 0.977-0.74 1.022 -0.09 0.009-0.09 0.045-0.09 0.366 0.009 0.081 0.017 0.1 0.065 0.1 0.325-0.009 0.652-0.009 0.979-0.019 0.324 0 0.659 0.01 0.993 0.019 0.073 0 0.073-0.036 0.081-0.083V8.24c-0.008-0.091-0.016-0.101-0.081-0.101 -0.66-0.027-0.725-0.447-0.718-0.958l0.082-3.598 3.943 5.023c0.057 0.073 0.09 0.073 0.351 0.073 0.056-0.01 0.089-0.01 0.089-0.109V3.309z"/><path fill-rule="evenodd" clip-rule="evenodd" d="M327.988 8.231c-0.01-0.055-0.01-0.064-0.065-0.064 -0.343-0.027-0.514-0.036-0.62-0.191 -0.113-0.138-0.113-0.32-0.122-0.612V3.354c0-0.685 0.262-0.694 0.717-0.721 0.074 0 0.081-0.01 0.099-0.101 0-0.283 0-0.32-0.024-0.338 -0.009-0.019-0.033-0.028-0.058-0.028 -0.407 0.01-1.018 0.019-1.271 0.019 -0.474 0-0.938-0.009-1.402-0.019 -0.048 0-0.064 0.01-0.064 0.056v0.337c0 0.063 0.009 0.073 0.074 0.083 0.357 0.027 0.496 0.036 0.618 0.173 0.106 0.119 0.106 0.264 0.114 0.547v3.809c-0.008 0.712-0.024 0.986-0.732 0.986 -0.074 0-0.082 0.009-0.082 0.082v0.301c0.008 0.065 0.017 0.074 0.049 0.074h0.017c0.44-0.009 0.871-0.019 1.303-0.019 0.465 0 0.921 0.01 1.377 0.019h0.024c0.04 0 0.05-0.009 0.05-0.063V8.231z"/><path fill-rule="evenodd" clip-rule="evenodd" d="M331.365 3.172c-0.016-0.064-0.031-0.127-0.031-0.201 0-0.356 0.342-0.356 0.537-0.356 0.073 0 0.081 0 0.098-0.091V2.232c-0.017-0.065-0.024-0.065-0.09-0.065 -0.423 0-1.002 0.019-1.36 0.019 -0.399 0-0.799-0.009-1.197-0.019 -0.057 0-0.057 0.037-0.065 0.33 0.009 0.064 0.017 0.073 0.081 0.1 0.562 0.073 0.628 0.256 1.011 1.352 0.619 1.753 0.822 2.328 1.613 4.583 0.032 0.064 0.057 0.083 0.098 0.083h0.497c0.057 0 0.072-0.019 0.098-0.083 0.651-1.853 0.831-2.346 1.693-4.72 0.343-0.986 0.506-1.142 1.101-1.188 0.064 0 0.073-0.018 0.081-0.063V2.259c0-0.092-0.049-0.092-0.081-0.092 -0.154-0.008-0.855 0.01-1.003 0.01 -0.333 0-0.658-0.01-0.993-0.01 -0.057 0-0.065 0.019-0.073 0.092v0.274c0.017 0.082 0.024 0.091 0.106 0.101 0.235 0.019 0.546 0.045 0.546 0.374 0 0.155-0.058 0.374-0.195 0.822 -0.146 0.475-0.246 0.749-1.166 3.288L331.365 3.172z"/><path fill-rule="evenodd" clip-rule="evenodd" d="M341.411 3.83c0.032-0.009 0.049-0.009 0.049-0.046 0-0.082-0.123-1.534-0.147-1.57 -0.039-0.046-0.911-0.064-1.05-0.064 -0.163 0-0.604 0.009-1.034 0.027 -0.439 0.009-0.865 0.027-1.012 0.027 -0.366 0-0.684-0.009-1.352-0.037h-0.016c-0.041 0-0.041 0.019-0.041 0.065v0.319c0 0.064 0.017 0.073 0.195 0.083 0.546 0.045 0.596 0.173 0.61 0.94V7.4c-0.024 0.621-0.113 0.739-0.726 0.758 -0.063 0-0.08 0.009-0.089 0.082v0.284c0.009 0.082 0.017 0.091 0.083 0.091 0.643-0.009 1.294-0.027 1.938-0.027 0.938 0 1.874 0.019 2.812 0.027 0.047 0 0.047-0.027 0.047-0.083 0.034-0.74 0.042-0.895 0.098-1.752l0.01-0.037c0-0.037-0.024-0.045-0.073-0.045 -0.041 0-0.278 0-0.293 0.009 -0.017 0.019-0.024 0.037-0.034 0.055 -0.309 1.151-0.464 1.461-1.441 1.461 -1.002 0-1.1-0.43-1.124-1.095V5.409c0.464 0 0.863-0.009 1.067 0.585 0.065 0.191 0.057 0.346 0.074 0.484 0.007 0.073 0.016 0.082 0.072 0.091h0.261c0.064 0 0.064-0.018 0.064-0.082 -0.007-0.42-0.015-0.84-0.015-1.26 0-0.201 0.015-1.078 0.015-1.251 0-0.063-0.007-0.063-0.056-0.063h-0.244c-0.066 0.008-0.074 0.018-0.082 0.072 -0.099 1.013-0.53 1.042-1.165 1.042V2.643c0.342-0.028 0.586-0.046 0.896-0.046 0.986 0 1.165 0.229 1.32 1.169 0.009 0.055 0.016 0.064 0.064 0.064H341.411z"/><path fill-rule="evenodd" clip-rule="evenodd" d="M343.48 2.579c0.009 0.055 0.009 0.073 0.059 0.073 0.732 0 0.739 0.237 0.739 0.575v4.246c0 0.557-0.229 0.639-0.725 0.685 -0.064 0-0.073 0.009-0.081 0.091V8.56c0.017 0.055 0.023 0.055 0.081 0.055 0.425-0.009 0.855-0.019 1.279-0.019 0.22 0 1.182 0.019 1.377 0.019 0.065 0 0.065-0.019 0.081-0.063V8.258c-0.009-0.082-0.016-0.091-0.099-0.091 -0.528-0.018-0.699-0.164-0.699-0.548V5.666c0.375 0.009 0.447 0.128 0.699 0.511l1.598 2.355c0.049 0.064 0.065 0.083 0.171 0.083 0.244-0.009 0.489-0.019 0.733-0.019 0.317 0 0.636 0.019 0.953 0.038 0.05 0 0.05-0.038 0.057-0.082V8.249c-0.007-0.073-0.024-0.073-0.096-0.082 -0.475-0.036-0.548-0.073-0.849-0.448 -0.7-0.977-0.904-1.241-1.679-2.201 1.181-0.329 1.32-1.205 1.32-1.616 0-0.648-0.311-1.086-0.546-1.314 -0.424-0.384-0.936-0.43-1.482-0.43 -0.237 0-1.255 0.027-1.466 0.027 -0.384 0-0.985-0.027-1.362-0.027 -0.041 0-0.049 0-0.064 0.045V2.579zM345.493 2.643c0.685 0 1.01 0.009 1.296 0.347 0.227 0.265 0.292 0.648 0.292 0.977 0 0.466-0.195 0.932-0.595 1.132 -0.317 0.155-0.61 0.155-0.993 0.165V2.643z"/><path fill-rule="evenodd" clip-rule="evenodd" d="M350.969 6.551c-0.025 0-0.066 0.027-0.066 0.073 0 0.146 0.018 0.767 0.018 0.895 0 0.166-0.025 0.886-0.025 1.042 0 0.046 0.018 0.046 0.057 0.055 0.099 0 0.277 0 0.293-0.019 0.01-0.008 0.018-0.026 0.018-0.044l0.049-0.357c0.277 0.219 0.839 0.658 1.645 0.658 1.003 0 1.924-0.858 1.924-2.1 0-1.27-0.961-1.835-1.834-2.31 -0.374-0.201-1.01-0.548-1.01-1.197 0-0.42 0.352-0.831 0.823-0.831 0.644 0 1.123 0.648 1.189 1.369 0.015 0.129 0.023 0.192 0.081 0.192h0.277c0.024 0 0.064-0.009 0.064-0.073 0-0.137-0.024-0.74-0.024-0.858 0-0.293 0.007-0.576 0.017-0.859 0-0.037-0.01-0.045-0.05-0.045 -0.031 0-0.253 0-0.26 0.009 -0.008 0.009-0.008 0.018-0.017 0.037l-0.089 0.32c-0.302-0.265-0.71-0.566-1.288-0.566 -1.09 0-1.653 0.977-1.653 1.898 0 1.243 0.969 1.818 1.857 2.347 0.415 0.247 0.929 0.557 0.929 1.124 0 0.73-0.644 1.078-1.115 1.078 -0.718 0-1.354-0.677-1.459-1.654 -0.016-0.146-0.041-0.182-0.098-0.182H350.969z"/><path fill-rule="evenodd" clip-rule="evenodd" d="M359.601 8.231c-0.008-0.055-0.008-0.064-0.064-0.064 -0.341-0.027-0.513-0.036-0.619-0.191 -0.115-0.138-0.115-0.32-0.122-0.612V3.354c0-0.685 0.26-0.694 0.716-0.721 0.074 0 0.082-0.01 0.1-0.101 0-0.283 0-0.32-0.025-0.338 -0.008-0.019-0.033-0.028-0.057-0.028 -0.408 0.01-1.02 0.019-1.271 0.019 -0.474 0-0.938-0.009-1.402-0.019 -0.049 0-0.065 0.01-0.065 0.056v0.337c0 0.063 0.008 0.073 0.073 0.083 0.359 0.027 0.497 0.036 0.619 0.173 0.106 0.119 0.106 0.264 0.114 0.547v3.809c-0.008 0.712-0.025 0.986-0.733 0.986 -0.073 0-0.08 0.009-0.08 0.082v0.301c0.007 0.065 0.015 0.074 0.049 0.074h0.015c0.44-0.009 0.872-0.019 1.305-0.019 0.464 0 0.92 0.01 1.377 0.019h0.023c0.041 0 0.049-0.009 0.049-0.063V8.231z"/><path fill-rule="evenodd" clip-rule="evenodd" d="M366.604 2.844v-0.53c-0.008-0.082-0.016-0.155-0.131-0.146 -0.92 0.01-1.832 0.028-2.679 0.028 -0.921 0-1.842-0.019-2.764-0.028 -0.081 0-0.13 0.083-0.13 0.174v0.694c0 0.265 0 0.53-0.008 0.795 0 0.073 0.017 0.083 0.082 0.083h0.236c0.058 0 0.064-0.01 0.072-0.092 0.105-1.16 0.629-1.187 1.857-1.206V7.4c-0.015 0.621-0.081 0.712-0.717 0.758 -0.057 0.009-0.065 0.018-0.072 0.073V8.56c0.007 0.046 0.007 0.064 0.04 0.064 0.44 0 0.872-0.028 1.312-0.028 0.464 0 0.921 0.01 1.386 0.028h0.032c0.04 0 0.04-0.018 0.04-0.064V8.231c-0.008-0.045-0.016-0.055-0.057-0.055 -0.627-0.064-0.726-0.082-0.726-0.794V2.606c1.256 0.028 1.752 0.083 1.85 1.215 0.009 0.082 0.025 0.092 0.074 0.1h0.252c0.065 0 0.065-0.083 0.065-0.091L366.604 2.844z"/><path fill-rule="evenodd" clip-rule="evenodd" d="M371.425 2.542c0 0.073 0.009 0.082 0.073 0.082 0.286 0.01 0.612 0.019 0.612 0.347 0 0.128-0.059 0.256-0.106 0.366l-0.986 1.917 -0.903-1.917c-0.058-0.137-0.105-0.265-0.105-0.393 0-0.246 0.21-0.32 0.487-0.32 0.099 0 0.106 0 0.115-0.073V2.25c0-0.064-0.009-0.091-0.082-0.091 -0.439 0.008-0.872 0.027-1.312 0.027 -0.48 0-0.954-0.009-1.434-0.027 -0.065 0-0.082 0.008-0.082 0.109v0.274c0 0.064 0.009 0.073 0.066 0.082 0.676 0.028 0.781 0.229 1.498 1.772l0.856 1.798v1.297c-0.025 0.584-0.197 0.612-0.839 0.667 -0.066 0.009-0.075 0.018-0.083 0.091v0.283c0.008 0.064 0.008 0.083 0.058 0.083h0.016c0.506-0.019 1.01-0.036 1.516-0.036 0.464 0 0.938 0.017 1.401 0.036 0.057 0 0.064-0.027 0.073-0.063V8.213c-0.009-0.037-0.017-0.046-0.058-0.046 -0.635-0.045-0.813-0.064-0.864-0.548v-2l0.775-1.488c0.61-1.15 0.725-1.369 1.1-1.47 0.097-0.027 0.203-0.037 0.326-0.045 0.056 0 0.072-0.009 0.072-0.082V2.259c0-0.082-0.023-0.1-0.089-0.1 -0.325 0.018-0.66 0.027-0.986 0.027 -0.35 0-0.701-0.019-1.05-0.027 -0.049 0-0.058 0.018-0.066 0.064V2.542z"/><path fill-rule="evenodd" clip-rule="evenodd" d="M376.755 4.845c-0.947 0.017-1.735 0.761-1.735 1.931 0 1.187 0.863 1.905 1.765 1.905 0.934 0 1.784-0.76 1.784-1.905C378.568 5.506 377.643 4.837 376.755 4.845zM376.771 5.296c0.446-0.05 0.754 0.577 0.754 1.446 0 0.743-0.239 1.479-0.748 1.479 -0.559 0-0.714-0.895-0.714-1.421C376.062 5.439 376.644 5.313 376.771 5.296z"/><path fill-rule="evenodd" clip-rule="evenodd" d="M379.521 4.945h-0.433c-0.052 0-0.06 0.008-0.067 0.067v0.31c0.016 0.041 0.022 0.041 0.067 0.049h0.433v2.131c-0.008 0.493-0.052 0.652-0.529 0.694 -0.038 0.017-0.046 0.025-0.052 0.067v0.292c0.006 0.034 0.014 0.059 0.067 0.059 0.373-0.008 0.745-0.017 1.118-0.017 0.328 0.009 0.655 0.009 0.983 0.017 0.039 0 0.044-0.025 0.053-0.042V8.255c0-0.041-0.009-0.049-0.044-0.058 -0.501-0.017-0.59-0.058-0.598-0.677V5.372h0.687c0.037 0 0.037-0.008 0.052-0.041V5.013c0-0.05 0-0.059-0.06-0.067h-0.679l0.015-1.278c0.022-0.267 0.052-0.618 0.3-0.76 0.036-0.025 0.081-0.034 0.125-0.034 0.193 0 0.269 0.184 0.328 0.31 0.038 0.092 0.164 0.4 0.478 0.4 0.12 0 0.351-0.1 0.351-0.425 0-0.31-0.261-0.677-0.992-0.677 -0.484 0-0.977 0.159-1.304 0.56 -0.275 0.343-0.283 0.769-0.292 1.07L379.521 4.945z"/><path fill-rule="evenodd" clip-rule="evenodd" d="M390.445 6.36c-0.08-0.256-0.164-0.521-0.253-0.787l-1.156-3.551c-0.025-0.055-0.042-0.055-0.253-0.055 -0.04 0-0.049 0-0.082 0.028 -0.236 0.684-0.3 0.885-0.504 1.588 -0.449 1.498-0.48 1.617-1.044 3.388l-0.943-3.242c-0.148-0.484-0.18-0.602-0.18-0.749 0-0.273 0.235-0.337 0.455-0.347 0.017 0 0.253-0.01 0.27-0.019 0.008-0.009 0.016-0.036 0.016-0.064v-0.31c0-0.055-0.008-0.083-0.081-0.083 -0.204 0-1.1 0.018-1.278 0.018 -0.48 0-0.954-0.01-1.435-0.018 -0.089 0-0.089 0.027-0.097 0.109v0.292c0.016 0.055 0.024 0.063 0.064 0.063 0.644 0.046 0.798 0.466 1.035 1.179 0.033 0.127 1.286 4.155 1.457 4.721 0.017 0.063 0.024 0.091 0.082 0.091h0.537c0.066 0 0.074-0.009 0.098-0.063 0.147-0.503 0.213-0.722 0.423-1.388 0.604-1.945 0.669-2.165 0.938-3.123 0.212 0.775 0.546 1.799 0.838 2.685 0.278 0.84 0.352 1.087 0.53 1.807 0.033 0.064 0.04 0.083 0.106 0.083h0.496c0.074 0 0.099 0 0.114-0.074 0.065-0.301 0.131-0.565 0.269-1.031 0.089-0.329 1.011-3.224 1.207-3.762 0.293-0.822 0.479-1.041 1.066-1.124 0.041-0.009 0.05-0.018 0.05-0.063V2.232c0-0.055-0.009-0.065-0.05-0.065 -0.18 0-0.953 0.019-1.115 0.019 -0.147 0-0.815-0.019-0.946-0.019 -0.049 0-0.057 0.019-0.057 0.092v0.292c0.008 0.073 0.016 0.083 0.074 0.083 0.309 0 0.609 0 0.609 0.42 0 0.365-0.284 1.27-0.414 1.689l-0.425 1.297L390.6 6.889 390.445 6.36z"/><path fill-rule="evenodd" clip-rule="evenodd" d="M397.159 8.231c-0.008-0.055-0.008-0.064-0.065-0.064 -0.343-0.027-0.513-0.036-0.618-0.191 -0.115-0.138-0.115-0.32-0.123-0.612V3.354c0-0.685 0.261-0.694 0.718-0.721 0.073 0 0.081-0.01 0.097-0.101 0-0.283 0-0.32-0.023-0.338 -0.01-0.019-0.033-0.028-0.059-0.028 -0.405 0.01-1.018 0.019-1.271 0.019 -0.472 0-0.937-0.009-1.4-0.019 -0.049 0-0.065 0.01-0.065 0.056v0.337c0 0.063 0.008 0.073 0.073 0.083 0.357 0.027 0.498 0.036 0.619 0.173 0.105 0.119 0.105 0.264 0.114 0.547v3.809c-0.009 0.712-0.024 0.986-0.733 0.986 -0.073 0-0.082 0.009-0.082 0.082v0.301c0.009 0.065 0.017 0.074 0.049 0.074h0.018c0.439-0.009 0.87-0.019 1.302-0.019 0.465 0 0.922 0.01 1.377 0.019h0.025c0.041 0 0.049-0.009 0.049-0.063V8.231z"/><path fill-rule="evenodd" clip-rule="evenodd" d="M399.168 6.551c-0.023 0-0.064 0.027-0.064 0.073 0 0.146 0.016 0.767 0.016 0.895 0 0.166-0.024 0.886-0.024 1.042 0 0.046 0.018 0.046 0.058 0.055 0.098 0 0.276 0 0.294-0.019 0.008-0.008 0.015-0.026 0.015-0.044l0.049-0.357c0.278 0.219 0.839 0.658 1.646 0.658 1.002 0 1.922-0.858 1.922-2.1 0-1.27-0.961-1.835-1.833-2.31 -0.373-0.201-1.009-0.548-1.009-1.197 0-0.42 0.351-0.831 0.822-0.831 0.644 0 1.125 0.648 1.189 1.369 0.017 0.129 0.024 0.192 0.081 0.192h0.277c0.024 0 0.064-0.009 0.064-0.073 0-0.137-0.024-0.74-0.024-0.858 0-0.293 0.009-0.576 0.017-0.859 0-0.037-0.008-0.045-0.049-0.045 -0.032 0-0.252 0-0.261 0.009 -0.007 0.009-0.007 0.018-0.015 0.037l-0.091 0.32c-0.301-0.265-0.708-0.566-1.287-0.566 -1.092 0-1.653 0.977-1.653 1.898 0 1.243 0.97 1.818 1.857 2.347 0.414 0.247 0.929 0.557 0.929 1.124 0 0.73-0.645 1.078-1.117 1.078 -0.717 0-1.352-0.677-1.459-1.654 -0.015-0.146-0.039-0.182-0.097-0.182H399.168z"/><path fill-rule="evenodd" clip-rule="evenodd" d="M409.919 8.46c0.025 0.072 0.033 0.081 0.098 0.091 0.253 0 0.286 0 0.286-0.091 -0.008-0.393-0.008-0.795-0.008-1.188 0-0.348 0-0.685 0.008-1.032 0-0.082-0.033-0.082-0.302-0.082 -0.089 0.009-0.097 0.018-0.106 0.091 -0.039 0.338-0.13 1.087-0.667 1.598 -0.252 0.238-0.537 0.402-0.97 0.402 -0.88 0-1.897-0.931-1.897-2.94 0-1.726 0.732-2.859 1.735-2.859 0.504 0 1.515 0.302 1.799 1.918 0.018 0.046 0.024 0.055 0.073 0.055h0.253c0.049 0 0.074 0 0.074-0.055 0-0.045-0.049-0.465-0.057-0.557 -0.066-0.667-0.082-1.104-0.09-1.645 -0.009-0.072-0.017-0.09-0.065-0.09 -0.245 0-0.269 0-0.309 0.073l-0.106 0.32c-0.358-0.192-0.971-0.52-1.857-0.52 -0.196 0-0.653 0-1.256 0.328 -0.992 0.529-1.621 1.671-1.621 3.096 0 0.794 0.188 1.799 0.896 2.584 0.773 0.84 1.604 0.885 1.987 0.885 0.831 0 1.304-0.247 1.997-0.703L409.919 8.46z"/><path fill-rule="evenodd" clip-rule="evenodd" d="M415.419 1.93c-1.498 0.01-3.111 1.288-3.111 3.443 0 1.827 1.164 3.46 3.209 3.46 1.71 0 3.202-1.333 3.202-3.46C418.719 3.428 417.423 1.921 415.419 1.93zM415.502 2.479c0.627-0.019 1.058 0.475 1.237 0.749 0.31 0.475 0.528 1.297 0.528 2.064 0 2.273-0.992 2.995-1.751 2.995 -1.124 0-1.76-1.324-1.76-2.895C413.757 3.565 414.548 2.497 415.502 2.479z"/><path fill-rule="evenodd" clip-rule="evenodd" d="M426.072 3.309c-0.015-0.576 0.172-0.666 0.693-0.675 0.08 0 0.089-0.01 0.098-0.101V2.259c0-0.063 0-0.1-0.073-0.1 -0.154 0.008-0.832 0.027-0.971 0.027 -0.121 0-0.643-0.019-0.961-0.027 -0.057 0-0.064 0.027-0.064 0.1v0.311c0.008 0.064 0.016 0.083 0.074 0.083 0.691 0 0.748 0.2 0.748 0.94l-0.008 2.877 -3.242-4.164c-0.081-0.092-0.13-0.146-0.302-0.146 -0.163 0-0.896 0.027-1.043 0.027 -0.188 0-0.375-0.009-0.562-0.009 -0.057 0.019-0.074 0.027-0.074 0.091v0.247c0 0.064 0.008 0.074 0.066 0.074 0.382 0.018 0.528 0.137 0.765 0.347l-0.098 4.191c-0.016 0.621-0.098 0.977-0.74 1.022 -0.09 0.009-0.09 0.045-0.09 0.366 0.008 0.081 0.016 0.1 0.064 0.1 0.326-0.009 0.652-0.009 0.979-0.019 0.324 0 0.658 0.01 0.993 0.019 0.073 0 0.073-0.036 0.081-0.083V8.24c-0.008-0.091-0.016-0.101-0.081-0.101 -0.659-0.027-0.725-0.447-0.718-0.958l0.083-3.598 3.942 5.023c0.057 0.073 0.09 0.073 0.351 0.073 0.057-0.01 0.089-0.01 0.089-0.109V3.309z"/><path fill-rule="evenodd" clip-rule="evenodd" d="M428.849 6.551c-0.024 0-0.064 0.027-0.064 0.073 0 0.146 0.016 0.767 0.016 0.895 0 0.166-0.024 0.886-0.024 1.042 0 0.046 0.016 0.046 0.056 0.055 0.099 0 0.278 0 0.295-0.019 0.007-0.008 0.017-0.026 0.017-0.044l0.048-0.357c0.278 0.219 0.84 0.658 1.646 0.658 1.002 0 1.921-0.858 1.921-2.1 0-1.27-0.96-1.835-1.831-2.31 -0.376-0.201-1.012-0.548-1.012-1.197 0-0.42 0.351-0.831 0.823-0.831 0.644 0 1.125 0.648 1.189 1.369 0.017 0.129 0.024 0.192 0.082 0.192h0.276c0.024 0 0.066-0.009 0.066-0.073 0-0.137-0.025-0.74-0.025-0.858 0-0.293 0.009-0.576 0.017-0.859 0-0.037-0.008-0.045-0.048-0.045 -0.034 0-0.253 0-0.263 0.009 -0.008 0.009-0.008 0.018-0.016 0.037l-0.09 0.32c-0.301-0.265-0.708-0.566-1.285-0.566 -1.094 0-1.656 0.977-1.656 1.898 0 1.243 0.97 1.818 1.857 2.347 0.416 0.247 0.929 0.557 0.929 1.124 0 0.73-0.643 1.078-1.115 1.078 -0.717 0-1.352-0.677-1.458-1.654 -0.017-0.146-0.041-0.182-0.098-0.182H428.849z"/><path fill-rule="evenodd" clip-rule="evenodd" d="M437.522 8.231c-0.008-0.055-0.008-0.064-0.065-0.064 -0.342-0.027-0.513-0.036-0.618-0.191 -0.115-0.138-0.115-0.32-0.123-0.612V3.354c0-0.685 0.261-0.694 0.716-0.721 0.075 0 0.083-0.01 0.101-0.101 0-0.283 0-0.32-0.025-0.338 -0.009-0.019-0.033-0.028-0.058-0.028 -0.408 0.01-1.019 0.019-1.271 0.019 -0.472 0-0.937-0.009-1.4-0.019 -0.049 0-0.065 0.01-0.065 0.056v0.337c0 0.063 0.008 0.073 0.073 0.083 0.358 0.027 0.496 0.036 0.619 0.173 0.106 0.119 0.106 0.264 0.113 0.547v3.809c-0.007 0.712-0.024 0.986-0.732 0.986 -0.073 0-0.082 0.009-0.082 0.082v0.301c0.009 0.065 0.017 0.074 0.05 0.074h0.016c0.441-0.009 0.872-0.019 1.304-0.019 0.465 0 0.92 0.01 1.377 0.019h0.024c0.041 0 0.049-0.009 0.049-0.063V8.231z"/><path fill-rule="evenodd" clip-rule="evenodd" d="M444.982 3.309c-0.017-0.576 0.171-0.666 0.693-0.675 0.08 0 0.089-0.01 0.097-0.101V2.259c0-0.063 0-0.1-0.073-0.1 -0.155 0.008-0.832 0.027-0.97 0.027 -0.123 0-0.644-0.019-0.961-0.027 -0.057 0-0.065 0.027-0.065 0.1v0.311c0.009 0.064 0.017 0.083 0.072 0.083 0.693 0 0.75 0.2 0.75 0.94l-0.008 2.877 -3.242-4.164c-0.082-0.092-0.131-0.146-0.301-0.146 -0.164 0-0.896 0.027-1.044 0.027 -0.187 0-0.374-0.009-0.562-0.009 -0.058 0.019-0.073 0.027-0.073 0.091v0.247c0 0.064 0.008 0.074 0.065 0.074 0.383 0.018 0.529 0.137 0.766 0.347l-0.099 4.191c-0.017 0.621-0.098 0.977-0.741 1.022 -0.089 0.009-0.089 0.045-0.089 0.366 0.008 0.081 0.016 0.1 0.064 0.1 0.326-0.009 0.652-0.009 0.978-0.019 0.326 0 0.66 0.01 0.994 0.019 0.074 0 0.074-0.036 0.082-0.083V8.24c-0.008-0.091-0.017-0.101-0.082-0.101 -0.66-0.027-0.725-0.447-0.717-0.958l0.081-3.598 3.944 5.023c0.057 0.073 0.089 0.073 0.35 0.073 0.056-0.01 0.09-0.01 0.09-0.109V3.309z"/><rect x="329.999" y="14.878" fill-rule="evenodd" clip-rule="evenodd" width="6.004" height="16.519"/><polygon fill-rule="evenodd" clip-rule="evenodd" points="337.9,31.396 348.94,31.396 348.94,26.095 343.902,26.095    343.902,14.878 337.9,14.878  "/><path fill-rule="evenodd" clip-rule="evenodd" d="M346.767 14.878l5.784 16.519h5.104l1.665-6.484c0.197-0.812 0.241-1.644 0.307-2.498h0.197l1.885 8.982h5.235l5.826-16.519h-6.242l-1.666 6.945c-0.219 0.942-0.328 1.95-0.416 2.914h-0.131l-2.258-9.858h-4.6l-1.754 6.813c-0.261 0.986-0.393 2.038-0.502 3.045h-0.133l-2.079-9.858H346.767z"/><path fill-rule="evenodd" clip-rule="evenodd" d="M376.353 29.336h4.536l0.547 2.061h6.353l-5.893-16.519h-6.638l-5.739 16.519h6.354L376.353 29.336zM377.428 25.416l1.095-5.04h0.218c0.11 0.702 0.22 1.424 0.396 2.125l0.702 2.914H377.428z"/><path fill-rule="evenodd" clip-rule="evenodd" d="M396.702 14.878v9.201c0 1.293-0.043 2.433-1.644 2.433 -1.599 0-1.642-1.14-1.642-2.433v-9.201h-6.004v9.771c0 4.82 3.023 7.012 7.646 7.012 4.623 0 7.646-2.192 7.646-7.012v-9.771H396.702z"/><path fill-rule="evenodd" clip-rule="evenodd" d="M404.518 31.396h5.848l-0.131-6.923h0.131c0.133 0.68 0.658 1.292 1.009 1.929l2.848 4.994h6.967l-5.719-8.479 5.17-8.04h-6.55l-2.892 5.303c-0.328 0.591-0.7 1.183-0.833 1.861h-0.131l0.131-7.164h-5.848V31.396z"/><polygon fill-rule="evenodd" clip-rule="evenodd" points="421.924,31.396 433.206,31.396 433.206,26.884 427.97,26.884    427.97,25.263 432.592,25.263 432.592,20.968 427.97,20.968 427.97,19.392 433.03,19.392 433.03,14.878 421.924,14.878  "/><polygon fill-rule="evenodd" clip-rule="evenodd" points="434.71,31.396 445.992,31.396 445.992,26.884 440.757,26.884    440.757,25.263 445.378,25.263 445.378,20.968 440.757,20.968 440.757,19.392 445.816,19.392 445.816,14.878 434.71,14.878  "/></g><g id="Layer_4"><path fill="#231F20" d="M2.009 44.995H0.811v-9.613h1.376c2.958 0 3.876 1.02 3.876 2.779 0 2.026-1.543 2.805-3.367 2.805H2.009V44.995zM2.009 39.894h0.383c1.224 0 2.549-0.229 2.549-1.758 0-1.505-1.428-1.683-2.614-1.683H2.009V39.894z"/><path fill="#231F20" d="M17.282 40.188c0 2.857-2.256 5.012-5.036 5.012 -2.78 0-5.036-2.154-5.036-5.012 0-2.753 2.282-5.011 5.036-5.011S17.282 37.435 17.282 40.188zM16.084 40.188c0-2.116-1.582-3.889-3.838-3.889 -2.257 0-3.838 1.772-3.838 3.889 0 2.194 1.759 3.89 3.838 3.89S16.084 42.382 16.084 40.188z"/><path fill="#231F20" d="M21.847 42.266l2.715-7.089 2.716 7.089 2.69-6.884h1.3l-3.99 9.996 -2.716-7.052 -2.715 7.052 -3.991-9.996h1.3L21.847 42.266z"/><path fill="#231F20" d="M32.912 35.382h5.164v1.095H34.11v2.691h3.851v1.097H34.11v3.635h3.965v1.096h-5.164V35.382z"/><path fill="#231F20" d="M46.363 44.995h-1.454l-2.831-4.066h-0.497v4.066h-1.199v-9.613h1.454c0.854 0 1.772 0.012 2.537 0.445 0.804 0.472 1.262 1.378 1.262 2.296 0 1.376-0.917 2.523-2.308 2.689L46.363 44.995zM41.582 39.934h0.382c1.224 0 2.551-0.229 2.551-1.76 0-1.505-1.429-1.721-2.614-1.721h-0.319V39.934z"/><path fill="#231F20" d="M49.319 36.477v2.705h3.341v1.096h-3.341v4.718H48.12v-9.613h4.656v1.095H49.319z"/><path fill="#231F20" d="M56.051 35.382v5.675c0 1.566 0.471 3.021 2.32 3.021 1.849 0 2.321-1.454 2.321-3.021v-5.675h1.198v6.082c0 2.116-1.312 3.735-3.519 3.735 -2.206 0-3.519-1.619-3.519-3.735v-6.082H56.051z"/><path fill="#231F20" d="M65.549 43.899h2.92v1.096h-4.119v-9.613h1.198V43.899z"/><path fill="#231F20" d="M75.99 45.073h-1.199V35.46h1.199V45.073z"/><path fill="#231F20" d="M78.451 35.46h1.989c2.945 0 5.394 1.556 5.394 4.756 0 3.276-2.397 4.857-5.432 4.857h-1.951V35.46zM79.649 43.977h0.421c2.448 0 4.564-0.917 4.564-3.71 0-2.805-2.117-3.711-4.564-3.711h-0.421V43.977z"/><path fill="#231F20" d="M87.795 35.46h5.165v1.096h-3.966v2.69h3.851v1.097h-3.851v3.634h3.966v1.097h-5.165V35.46z"/><path fill="#231F20" d="M96.721 42.663l-1.098 2.41h-1.288l4.591-10.022 4.59 10.022h-1.288l-1.097-2.41H96.721zM98.926 37.678l-1.708 3.89h3.417L98.926 37.678z"/><path fill="#231F20" d="M109.444 37.283c-0.357-0.6-0.816-0.906-1.543-0.906 -0.765 0-1.607 0.522-1.607 1.364 0 0.753 0.74 1.148 1.339 1.378l0.689 0.269c1.364 0.535 2.385 1.287 2.385 2.894 0 1.747-1.353 2.996-3.074 2.996 -1.556 0-2.767-1.147-2.971-2.689l1.212-0.256c-0.012 1.059 0.829 1.822 1.861 1.822 1.034 0 1.773-0.866 1.773-1.873 0-1.033-0.829-1.479-1.657-1.822l-0.664-0.282c-1.097-0.471-2.091-1.097-2.091-2.436 0-1.555 1.377-2.486 2.831-2.486 1.071 0 1.951 0.523 2.473 1.453L109.444 37.283z"/><path fill="#231F20" d="M121.956 35.333h3.825c2.066 0 3.495 0.955 3.495 3.162 0 2.269-1.225 3.265-3.405 3.265h-1.416v3.188h-2.499V35.333zM124.455 39.744h0.422c0.904 0 1.796 0 1.796-1.173 0-1.212-0.828-1.226-1.796-1.226h-0.422V39.744z"/><path fill="#231F20" d="M139.143 44.947h-3.11l-2.359-3.699h-0.026v3.699h-2.499v-9.614h3.737c1.899 0 3.34 0.904 3.34 2.958 0 1.326-0.74 2.473-2.104 2.716L139.143 44.947zM133.646 39.644h0.242c0.816 0 1.734-0.154 1.734-1.2 0-1.045-0.918-1.197-1.734-1.197h-0.242V39.644z"/><path fill="#231F20" d="M150.413 39.961c0 3.11-2.232 5.305-5.317 5.305 -3.086 0-5.317-2.194-5.317-5.305 0-2.906 2.55-4.947 5.317-4.947C147.863 35.014 150.413 37.055 150.413 39.961zM142.379 39.974c0 1.657 1.225 2.87 2.717 2.87 1.491 0 2.714-1.213 2.714-2.87 0-1.326-1.223-2.537-2.714-2.537C143.604 37.437 142.379 38.647 142.379 39.974z"/><path fill="#231F20" d="M155.728 41.172l2.333-5.839h2.717l-4.106 9.614h-1.938l-4.043-9.614h2.716L155.728 41.172z"/><path fill="#231F20" d="M164.818 37.45v1.605h2.818v2.116h-2.818v1.659h2.97v2.116h-5.47v-9.614h5.47v2.117H164.818z"/><path fill="#231F20" d="M169.917 35.333h2.5l4.578 5.878h0.025v-5.878h2.5v9.614h-2.5l-4.577-5.892h-0.026v5.892h-2.5V35.333z"/><path fill="#231F20" d="M193.608 44.899h-3.11l-2.359-3.698h-0.026v3.698h-2.498v-9.614h3.736c1.898 0 3.339 0.905 3.339 2.958 0 1.327-0.739 2.476-2.104 2.717L193.608 44.899zM188.113 39.596h0.243c0.815 0 1.734-0.152 1.734-1.198s-0.919-1.199-1.734-1.199h-0.243V39.596z"/><path fill="#231F20" d="M197.394 37.402v1.606h2.818v2.117h-2.818v1.657h2.971v2.116h-5.47v-9.614h5.47v2.117H197.394z"/><path fill="#231F20" d="M207.695 37.759c-0.458-0.383-1.045-0.638-1.657-0.638 -0.459 0-1.072 0.268-1.072 0.804 0 0.561 0.677 0.779 1.11 0.918l0.637 0.191c1.339 0.396 2.372 1.071 2.372 2.628 0 0.955-0.229 1.938-0.994 2.587 -0.753 0.638-1.76 0.905-2.729 0.905 -1.212 0-2.397-0.406-3.379-1.097l1.072-2.014c0.624 0.548 1.363 0.994 2.218 0.994 0.588 0 1.211-0.293 1.211-0.97 0-0.701-0.981-0.942-1.518-1.097 -1.567-0.445-2.601-0.854-2.601-2.715 0-1.952 1.39-3.227 3.314-3.227 0.97 0 2.155 0.307 3.01 0.79L207.695 37.759z"/><path fill="#231F20" d="M218.992 35.285v5.408c0 1.235-0.052 2.459-1.007 3.391 -0.803 0.79-2.065 1.07-3.188 1.07 -1.122 0-2.384-0.28-3.187-1.07 -0.956-0.932-1.007-2.155-1.007-3.391v-5.408h2.5v5.062c0 1.251 0.089 2.614 1.694 2.614 1.607 0 1.697-1.363 1.697-2.614v-5.062H218.992z"/><path fill="#231F20" d="M223.657 42.783h2.995v2.116h-5.493v-9.614h2.498V42.783z"/><path fill="#231F20" d="M231.56 44.899h-2.498v-7.497h-2.064v-2.117h6.63v2.117h-2.067V44.899z"/><path fill="#231F20" d="M240.22 37.759c-0.46-0.383-1.048-0.638-1.659-0.638 -0.459 0-1.072 0.268-1.072 0.804 0 0.561 0.678 0.779 1.111 0.918l0.637 0.191c1.34 0.396 2.373 1.071 2.373 2.628 0 0.955-0.23 1.938-0.995 2.587 -0.753 0.638-1.76 0.905-2.729 0.905 -1.213 0-2.397-0.406-3.381-1.097l1.072-2.014c0.624 0.548 1.365 0.994 2.22 0.994 0.585 0 1.209-0.293 1.209-0.97 0-0.701-0.98-0.942-1.518-1.097 -1.566-0.445-2.6-0.854-2.6-2.715 0-1.952 1.39-3.227 3.314-3.227 0.969 0 2.156 0.307 3.009 0.79L240.22 37.759z"/><line fill="none" stroke="#231F20" x1="116.479" y1="28.452" x2="116.479" y2="51.909"/><line fill="none" stroke="#231F20" x1="247.24" y1="28.438" x2="247.24" y2="51.895"/></g></svg>